<svg width="1819" height="900" viewBox="0 0 1819 900" fill="none" xmlns="http://www.w3.org/2000/svg">
<path d="M1628.51 521.343C1599.76 539.457 1569.04 676.102 1529.07 676.102C1387.9 676.102 1344.98 151.184 1148.68 219.309C1046.88 254.75 955.524 531.976 832.072 613.489C703.5 698.351 595.209 317.952 502.275 317.952C404.616 317.952 363.072 726.113 285.889 745.802C248.086 755.45 206.344 695.594 170.51 711.149C132.116 727.885 115.38 773.564 94.5089 811.564C73.6382 849.565 29.7309 876.539 0 879.099H1818.9C1680.29 787.346 1721.64 463.063 1628.51 521.343Z" fill="#D4E1EA" fill-opacity="0.15"/>
<path d="M931.306 263.019C930.125 263.019 928.943 263.019 927.762 263.216L901.772 267.351L898.228 304.958H956.508V288.025C956.508 281.133 953.752 274.833 949.223 270.304C944.498 265.973 938.197 263.019 931.306 263.019Z" fill="#8E0F1B"/>
<path d="M435.725 456.369C435.528 456.369 435.134 456.369 434.937 456.369C318.179 460.306 226.624 558.162 230.562 674.92C234.5 791.678 332.356 883.037 449.31 879.099C449.507 879.099 449.901 879.099 450.098 879.099C566.462 874.767 657.624 777.108 653.686 660.547C649.748 544.183 552.089 452.824 435.725 456.369Z" fill="#1D3878"/>
<path d="M625.53 582.774C625.136 582.183 623.167 574.701 622.38 574.111C615.685 569.779 609.582 581.396 607.613 576.08C605.053 568.795 600.131 562.297 594.815 565.448C589.302 568.992 591.664 572.536 593.633 575.095C597.177 579.427 581.426 574.505 579.654 573.323C577.882 572.142 576.11 570.37 574.928 568.401C570.794 561.51 560.358 567.81 560.358 567.81L550.514 581.593L549.135 582.577C548.348 583.562 547.363 584.546 546.379 585.137C545.985 585.531 545.591 585.924 545.001 586.121C544.41 586.515 541.26 587.696 541.26 587.696C534.171 590.256 524.721 589.665 523.145 580.608C522.555 576.867 523.342 573.52 525.311 570.764L528.658 567.613C529.643 567.023 530.824 566.235 532.203 565.841C533.975 565.251 539.881 561.313 541.653 554.421C542.638 550.877 546.379 549.499 549.529 548.515C556.42 546.546 566.856 544.971 568.825 538.079C573.55 521.934 559.374 520.753 558.783 512.877C558.586 511.105 559.965 509.53 561.54 509.136C566.265 507.955 570.597 505.395 574.338 502.442C536.337 472.12 487.902 454.596 435.725 456.172C435.528 456.172 435.331 456.172 435.331 456.172C390.242 457.747 349.092 473.498 315.423 498.701C319.755 498.307 323.889 498.11 328.418 498.504C330.978 498.897 334.522 496.535 334.325 493.778C333.734 480.783 366.025 488.659 370.553 488.462C391.03 487.478 397.331 477.83 401.268 477.239C406.585 476.255 411.507 488.265 416.232 488.462C416.232 488.462 433.362 492.006 436.906 494.172C448.917 501.654 437.891 517.012 433.559 517.209L423.321 516.224C419.776 515.633 415.051 513.468 411.704 513.074C409.538 512.877 395.559 518.981 388.667 518.981C382.76 518.981 377.247 516.618 371.734 519.965C366.221 521.934 364.253 537.095 379.807 537.095C392.999 537.095 393.393 519.571 404.222 517.602C404.616 517.602 405.206 517.405 405.797 517.405C412.098 516.815 419.58 518.784 424.699 522.328C427.258 524.1 433.756 525.281 433.756 525.281C435.331 525.872 436.906 526.856 438.284 528.628C442.616 534.535 443.404 541.427 446.357 547.727C447.932 550.877 451.673 556.587 449.114 560.131C440.45 572.142 424.305 551.271 406.191 559.934C392.802 566.432 392.014 571.551 389.455 576.867C385.517 581.593 379.61 587.893 370.947 594.391C358.149 604.039 351.651 614.868 338.853 617.427C333.931 618.412 327.827 619.593 320.345 621.365C314.045 622.94 310.697 625.303 308.729 627.666C306.957 630.029 306.76 632.588 306.957 634.36C319.361 651.687 338.656 632.588 350.667 646.371C353.423 647.158 355.983 648.34 358.346 649.718C360.708 651.096 363.071 653.065 365.237 655.428C367.6 658.184 369.766 661.335 371.341 665.469C374.097 667.045 377.051 668.423 380.201 669.21C383.548 670.195 387.092 670.786 391.03 670.786C393.393 670.786 395.755 670.982 397.921 671.179C413.476 672.754 418.989 676.298 422.533 681.811C423.714 683.78 424.699 685.749 425.88 688.309C434.15 718.631 472.544 757.025 424.305 768.445C421.155 769.429 417.808 770.217 414.067 770.61C411.113 771.792 407.963 772.776 405.009 773.958C402.056 774.942 399.103 776.124 396.346 777.108C394.18 778.683 392.211 780.455 390.636 782.424C384.336 790.3 384.336 801.523 394.968 819.243C396.346 822 397.724 824.953 399.103 827.71C403.237 836.373 407.372 845.43 408.16 854.684C407.175 856.653 405.994 858.425 404.616 860.197C400.481 865.316 394.377 869.451 384.533 870.829C405.009 876.539 426.668 879.493 449.114 878.705C449.31 878.705 449.507 878.705 449.507 878.705C510.938 876.539 565.478 847.99 602.69 804.476C601.312 802.704 599.934 781.637 597.177 773.958C597.177 773.958 587.136 749.346 586.151 740.289C583.986 721.781 581.229 704.848 572.369 688.112C566.659 677.283 536.534 685.159 525.902 685.749C492.627 687.521 492.43 647.552 495.187 623.925C494.399 618.412 496.762 612.505 503.456 610.536C515.27 606.992 521.964 597.738 535.353 596.36C563.312 593.406 562.918 583.168 577.094 585.137C588.908 586.712 590.089 601.085 603.872 595.769C616.276 591.241 624.742 603.842 637.737 598.919C638.919 598.526 640.297 598.329 641.282 598.132C639.903 593.997 638.328 589.862 636.556 585.728C631.634 587.5 628.68 588.09 625.53 582.774Z" fill="#AFC4D5"/>
<path d="M284.707 692.641C285.101 689.097 285.692 685.356 286.873 681.615C288.055 677.874 289.63 674.133 291.599 669.998C292.583 667.241 293.764 664.485 295.143 661.728C294.946 658.381 294.355 655.034 293.174 651.884C292.189 648.733 290.614 645.583 288.645 642.827C286.676 641.055 284.707 639.086 282.148 637.117C277.816 633.573 275.65 626.878 273.878 620.971C271.516 613.883 269.35 606.401 262.458 606.401C252.811 606.204 249.857 598.526 249.07 595.178L248.873 594.194C248.479 592.225 245.132 591.634 245.132 591.634L244.738 591.437C234.696 617.23 229.577 645.386 230.759 674.723C232.334 721.387 249.267 763.916 276.044 797.979C275.257 793.056 294.552 742.455 293.174 739.501C288.842 730.838 285.889 721.781 284.314 713.118C284.117 709.77 284.117 706.423 284.117 702.879C283.92 699.729 284.314 696.185 284.707 692.641Z" fill="#AFC4D5"/>
<path fill-rule="evenodd" clip-rule="evenodd" d="M274.273 486.099C261.868 486.099 246.708 496.338 246.708 513.271C246.708 538.67 274.273 566.235 274.273 566.235C274.273 566.235 301.838 539.064 301.838 513.271C301.641 496.338 287.268 486.099 274.273 486.099ZM273.879 529.219C265.216 529.219 257.93 521.934 257.93 513.271C257.93 504.607 265.216 497.322 273.879 497.322C282.542 497.322 289.827 504.607 289.827 513.271C289.827 521.934 282.542 529.219 273.879 529.219Z" fill="#BB2629"/>
<path d="M253.402 630.816C251.433 630.619 249.267 630.225 247.495 629.635C249.464 630.816 248.48 631.801 250.449 633.376C251.236 633.77 255.371 633.179 255.568 632.194C255.568 630.619 254.386 630.816 253.402 630.816Z" fill="#F8A479"/>
<path d="M258.718 639.086C258.324 638.692 253.992 634.36 251.827 632.588C250.055 631.21 248.086 629.832 246.117 628.65C245.92 628.65 240.013 633.376 238.635 635.345C241.588 637.904 251.827 644.796 252.024 644.993C255.371 648.537 257.34 648.143 257.537 646.765C257.537 646.371 260.687 647.946 261.081 646.765C261.081 646.765 262.262 646.962 262.656 645.977C263.05 645.189 262.853 643.417 262.656 642.827C262.065 642.236 259.702 640.07 258.718 639.086Z" fill="#F8A479"/>
<path d="M204.966 512.286C204.572 510.317 181.93 513.862 178.582 515.83C170.51 520.359 182.717 568.401 189.805 584.743C192.562 590.847 208.117 596.951 205.754 575.686C203.982 558.359 206.935 523.116 204.966 512.286Z" fill="#F8A479"/>
<path d="M178.386 515.633C173.07 518.784 172.085 542.017 177.204 561.313C179.567 561.313 186.458 560.328 188.624 560.131C194.137 559.541 202.013 558.162 207.526 556.784C205.951 540.048 206.345 519.768 204.966 512.286C204.573 510.317 181.93 513.665 178.386 515.633Z" fill="#FEBB12"/>
<path d="M202.604 576.671C202.21 576.277 201.422 575.686 200.832 575.292C197.485 573.52 191.775 573.323 189.215 580.411C186.262 588.09 223.671 623.925 240.014 636.329C241.392 634.163 243.755 631.604 246.905 629.044C236.469 621.759 211.07 585.137 202.604 576.671Z" fill="#F8A479"/>
<path d="M107.11 712.724C106.716 719.418 119.711 867.285 119.711 867.285C119.711 867.482 125.421 868.073 128.965 865.316C128.965 865.316 137.038 720.402 137.235 717.449C134.872 719.812 110.851 715.677 107.11 712.724Z" fill="#FCD2C6"/>
<path d="M130.934 865.119C129.556 863.544 127.981 860.984 127.981 860.984L120.302 865.316C120.302 865.316 119.711 866.104 120.105 868.663C120.105 868.663 118.924 871.42 120.499 873.783C121.286 875.161 126.209 876.539 128.768 877.917C130.737 879.099 134.084 879.296 138.022 879.099C141.763 878.902 146.489 876.933 146.489 874.767C146.095 870.435 133.494 868.27 130.934 865.119Z" fill="#284C98"/>
<path d="M119.317 864.529C119.317 864.529 119.514 866.104 119.908 868.663C119.908 868.663 124.83 870.435 126.406 869.451C129.359 867.876 130.934 865.119 130.934 865.119C128.965 862.56 128.178 860.591 128.178 860.591L119.317 864.529Z" fill="#F8A479"/>
<path d="M97.856 611.914V660.744C101.4 663.697 100.612 707.211 107.11 753.284C114.789 806.642 118.727 862.953 118.727 862.953C122.468 867.088 130.146 862.953 130.146 862.56C130.146 862.56 151.214 617.624 149.836 607.78C143.535 610.339 116.561 613.096 97.856 611.914Z" fill="#8E0F1B"/>
<path d="M178.977 470.742C164.603 458.337 160.469 441.404 141.764 488.856C136.251 503.229 132.313 503.426 126.8 506.576C99.2348 522.721 127.784 568.007 135.266 553.634C138.22 548.121 123.453 537.882 147.08 531.582C173.267 524.493 166.375 511.105 166.375 502.638" fill="#BB2629"/>
<path d="M150.033 712.724C149.639 719.418 162.634 867.285 162.634 867.285C162.634 867.482 168.344 868.073 171.888 865.316C171.888 865.316 179.961 720.402 180.158 717.449C177.795 719.812 153.774 715.677 150.033 712.724Z" fill="#FCD2C6"/>
<path d="M173.857 865.119C172.479 863.544 170.904 860.984 170.904 860.984L163.225 865.316C163.225 865.316 162.634 866.104 163.028 868.663C163.028 868.663 161.846 871.42 163.422 873.783C164.209 875.161 169.328 877.327 171.691 877.917C173.857 878.705 177.007 879.296 180.945 879.099C184.686 878.902 189.412 876.933 189.412 874.767C189.018 870.435 176.417 868.27 173.857 865.119Z" fill="#284C98"/>
<path d="M162.241 864.529C162.241 864.529 162.438 866.104 162.831 868.663C162.831 868.663 167.754 870.435 169.329 869.451C172.282 867.876 173.857 865.119 173.857 865.119C171.889 862.56 171.101 860.591 171.101 860.591L162.241 864.529Z" fill="#F8A479"/>
<path d="M140.779 611.914V660.744C144.323 663.697 143.535 707.211 150.033 753.284C157.712 806.642 161.65 862.953 161.65 862.953C165.39 867.088 173.069 862.953 173.069 862.56C173.069 862.56 194.137 617.624 192.759 607.78C186.655 610.339 159.484 613.096 140.779 611.914Z" fill="#8E0F1B"/>
<path d="M94.9027 616.049C95.0996 619.987 112.82 630.816 162.24 628.847C180.748 628.06 184.292 640.07 191.381 635.345C194.531 633.376 194.728 609.158 194.728 609.158L101.991 593.406C102.188 593.406 94.7059 612.111 94.9027 616.049Z" fill="#FEBB12"/>
<path d="M198.075 501.26C195.712 499.488 182.717 493.384 182.717 493.384C182.717 493.384 178.976 496.929 175.235 496.141C169.722 494.96 162.437 486.493 162.437 486.493C162.437 486.493 150.23 487.478 146.095 488.462C130.344 492.4 123.649 514.649 121.286 524.887C120.499 528.628 97.4624 592.619 99.2344 597.541C103.763 609.945 188.033 627.863 195.515 618.215C198.469 614.277 204.769 533.354 204.966 525.281C205.557 517.602 206.738 508.151 198.075 501.26Z" fill="#1D3878"/>
<path d="M168.147 464.835C168.147 470.151 164.603 484.131 162.634 486.69C165.587 496.732 181.142 498.898 182.914 493.385C181.339 487.084 185.473 476.255 185.67 475.27C181.536 475.27 169.328 466.016 168.147 464.835Z" fill="#F8A479"/>
<path d="M184.686 448.296C177.007 447.705 171.691 453.612 171.101 461.291L170.51 469.167C170.116 474.876 178.189 484.327 183.308 483.737C195.122 482.162 199.256 460.897 199.06 458.337C198.272 451.446 191.774 448.887 184.686 448.296Z" fill="#F8A479"/>
<path d="M195.515 446.918C194.924 443.374 183.308 432.348 169.525 442.783C149.245 457.944 168.147 473.301 168.147 473.301C167.753 468.182 176.22 449.477 192.562 451.84C192.562 451.84 200.831 457.353 196.303 469.954C202.013 468.182 207.132 450.856 195.515 446.918Z" fill="#BB2629"/>
<path d="M172.873 437.86C172.085 437.664 171.101 437.664 169.919 438.254C165.785 440.026 165.391 442.586 166.178 445.146C166.178 445.146 170.904 441.208 176.22 440.223C176.22 440.223 174.842 438.451 172.873 437.86Z" fill="#152B4D"/>
<path d="M267.381 554.421C265.609 555.406 263.837 556.39 261.868 556.784C264.034 556.587 264.034 557.966 266.397 558.162C267.381 557.966 270.335 555.012 269.744 554.225C268.956 553.043 268.169 553.831 267.381 554.421Z" fill="#F8A479"/>
<path d="M281.755 559.344C280.967 558.753 277.62 558.556 276.439 558.162C276.045 558.162 269.744 556.981 266.988 556.981C264.625 556.784 262.262 556.784 260.097 556.981C259.9 556.981 257.931 564.266 257.931 566.826C261.869 567.219 274.076 567.023 274.47 567.22C279.195 568.204 280.77 566.826 279.983 565.644C279.786 565.447 283.133 564.857 282.739 563.675C282.739 563.675 283.724 563.085 283.724 562.1C283.527 561.116 282.345 559.541 281.755 559.344Z" fill="#F8A479"/>
<path d="M143.339 501.26C139.991 503.623 130.147 520.556 137.235 524.69C146.686 530.204 169.328 545.167 185.474 551.862C204.966 559.934 205.36 545.955 200.438 541.426C187.64 529.022 151.017 495.944 143.339 501.26Z" fill="#F8A479"/>
<path d="M145.701 495.944C135.266 497.913 126.012 511.302 135.266 523.706C139.991 529.81 151.214 538.67 164.8 544.971C168.935 541.23 174.251 535.323 177.795 530.991C179.173 529.219 183.702 523.903 184.883 521.934C171.297 506.97 151.805 494.763 145.701 495.944Z" fill="#FEBB12"/>
<path d="M186.852 551.074C190.593 558.162 238.832 565.841 259.506 566.826C259.506 564.266 259.899 560.919 260.884 556.981C248.283 556.784 206.541 541.033 194.728 539.064C189.018 538.079 183.308 544.577 186.852 551.074Z" fill="#F8A479"/>
<path d="M132.706 445.145L167.556 449.871C170.706 447.114 175.038 445.342 180.354 445.342C181.536 445.342 182.717 445.539 183.898 445.736L210.873 422.306L166.769 415.808L132.706 445.145Z" fill="#1D3878"/>
<path d="M171.1 428.213C159.287 431.56 150.623 437.073 151.411 440.223L156.727 458.731C156.727 458.731 164.603 451.249 176.81 448.099C189.018 444.752 199.453 446.327 199.453 446.327L194.137 427.819C193.152 424.669 182.914 424.669 171.1 428.213Z" fill="#284C98"/>
<path d="M131.918 442.586L132.706 445.146L166.965 415.612L166.178 412.855L131.918 442.586Z" fill="#284C98"/>
<path d="M166.178 412.855L166.965 415.612L211.069 422.306L210.282 419.746L166.178 412.855Z" fill="#284C98"/>
<path d="M146.882 444.358H144.323V474.089H146.882V444.358Z" fill="#1D3878"/>
<path d="M145.701 479.799C147.441 479.799 148.851 478.388 148.851 476.649C148.851 474.909 147.441 473.498 145.701 473.498C143.961 473.498 142.551 474.909 142.551 476.649C142.551 478.388 143.961 479.799 145.701 479.799Z" fill="#1D3878"/>
<path d="M167.163 462.275C166.769 464.047 168.541 467.197 170.313 468.182C171.495 466.213 173.66 462.472 174.842 460.109C173.857 459.322 172.676 458.731 171.888 458.534C169.919 457.943 167.557 460.306 167.163 462.275Z" fill="#F8A479"/>
<path d="M1776.96 373.673C1769.87 373.673 1763.57 377.217 1759.44 382.336H1794.49C1790.35 377.217 1784.05 373.673 1776.96 373.673Z" fill="#EBECEF" fill-opacity="0.3"/>
<path d="M1691.12 363.829C1683.64 363.829 1677.93 372.689 1671.23 371.114C1656.46 367.569 1650.36 348.668 1634.22 348.668C1621.81 348.668 1614.53 364.222 1602.91 363.041C1584.6 361.466 1576.53 336.657 1556.84 336.657C1538.72 336.657 1529.67 357.725 1512.93 359.694C1503.08 360.875 1495.8 348.865 1484.97 348.865C1464.69 348.865 1462.92 356.937 1444.21 362.647C1438.9 364.222 1434.76 374.658 1428.66 374.658C1421.57 374.658 1415.27 376.823 1411.14 381.943H1721.24C1716.32 372.295 1704.7 363.829 1691.12 363.829Z" fill="#EBECEF" fill-opacity="0.3"/>
<path d="M97.8561 200.998C92.7368 200.998 88.2083 203.557 85.2549 207.102H110.457C107.504 203.557 102.975 200.998 97.8561 200.998Z" fill="#EBECEF" fill-opacity="0.3"/>
<path d="M348.699 201.982C344.367 201.982 348.108 194.697 337.476 193.319C319.361 190.759 322.709 183.277 308.139 183.277C300.46 183.277 295.144 191.744 288.055 190.956C276.045 189.578 269.547 174.417 256.356 174.417C242.179 174.417 236.272 192.138 223.081 193.319C214.811 194.107 209.495 182.884 200.635 182.884C189.018 182.884 184.686 196.469 174.054 199.029C169.132 200.21 165.194 193.713 159.681 193.713C149.836 193.713 141.567 199.816 137.826 206.905H361.3C358.346 203.557 353.818 201.982 348.699 201.982Z" fill="#EBECEF" fill-opacity="0.3"/>
<path d="M1018.53 768.839H786.393V850.352H1018.53V768.839Z" fill="#EEF5F8"/>
<path fill-rule="evenodd" clip-rule="evenodd" d="M1275.87 284.677H528.856C507.788 284.677 490.659 301.807 490.659 322.875V729.46C490.659 750.527 507.788 767.657 528.856 767.657H1276.07C1297.13 767.657 1314.26 750.527 1314.26 729.46V322.875C1314.07 302.004 1296.94 284.677 1275.87 284.677Z" fill="white"/>
<path d="M1288.67 306.927H515.861V699.335H1288.67V306.927Z" fill="#AFC4D5"/>
<path fill-rule="evenodd" clip-rule="evenodd" d="M1090.99 849.762H713.739C705.666 849.762 698.972 856.456 698.972 864.529C698.972 872.601 705.666 879.296 713.739 879.296H1090.99C1099.06 879.296 1105.75 872.601 1105.75 864.529C1105.75 856.259 1099.06 849.762 1090.99 849.762Z" fill="white"/>
<path d="M584.971 314.802H536.929V414.824H584.971V314.802Z" fill="#EEF5F8"/>
<path d="M698.775 314.802H650.733V414.824H698.775V314.802Z" fill="#1D3878"/>
<path d="M750.164 318.149H702.122V418.171H750.164V318.149Z" fill="white"/>
<path d="M803.114 317.261L754.068 389.386L788.747 412.968L837.793 340.843L803.114 317.261Z" fill="#EEF5F8"/>
<path d="M622.457 311.48L585.046 321.724L611.462 418.195L648.873 407.951L622.457 311.48Z" fill="white"/>
<path d="M838.176 454.99H790.134V555.012H838.176V454.99Z" fill="#1D3878"/>
<path d="M716.495 454.793H668.453V554.815H716.495V454.793Z" fill="#1D3878"/>
<path d="M665.106 457.353H630.65V557.375H665.106V457.353Z" fill="white"/>
<path d="M536.929 529.81L571.976 553.634L626.712 468.773L591.665 444.949L536.929 529.81Z" fill="#1D3878"/>
<path d="M759.278 446.941L721.867 457.185L748.283 553.656L785.694 543.412L759.278 446.941Z" fill="#1D3878"/>
<path d="M580.442 599.116H532.4V699.138H580.442V599.116Z" fill="#1D3878"/>
<path d="M809.742 588.966L764.217 604.32L796.184 699.101L841.709 683.747L809.742 588.966Z" fill="#EEF5F8"/>
<path d="M704.879 599.313H656.837V699.335H704.879V599.313Z" fill="#1D3878"/>
<path d="M758.631 599.313H710.589V699.335H758.631V599.313Z" fill="#1D3878"/>
<path d="M613.155 591.884L586.739 688.355L624.15 698.599L650.566 602.127L613.155 591.884Z" fill="#EEF5F8"/>
<path d="M870.466 306.927H861.015V699.335H870.466V306.927Z" fill="white"/>
<path d="M865.741 418.171H502.472V427.622H865.741V418.171Z" fill="white"/>
<path d="M865.741 555.012H502.472V564.463H865.741V555.012Z" fill="white"/>
<g opacity="0.2">
<g opacity="0.2">
<g opacity="0.2">
<g opacity="0.2">
<path opacity="0.2" d="M1283.75 314.802H1235.7V414.824H1283.75V314.802Z" fill="#EEF5F8"/>
</g>
</g>
<g opacity="0.2">
<g opacity="0.2">
<path opacity="0.2" d="M1170.14 314.802H1122.1V414.824H1170.14V314.802Z" fill="#152B4D"/>
</g>
</g>
<g opacity="0.2">
<path opacity="0.2" d="M1118.75 318.149H1070.71V418.171H1118.75V318.149Z" fill="white"/>
</g>
<g opacity="0.2">
<path opacity="0.2" d="M1198.46 311.656L1172.03 408.117L1209.44 418.368L1235.87 321.907L1198.46 311.656Z" fill="white"/>
</g>
</g>
<g opacity="0.2">
<g opacity="0.2">
<g opacity="0.2">
<path opacity="0.2" d="M1152.42 454.793H1104.38V554.815H1152.42V454.793Z" fill="#152B4D"/>
</g>
</g>
<g opacity="0.2">
<path opacity="0.2" d="M1190.22 457.353H1155.76V557.375H1190.22V457.353Z" fill="white"/>
</g>
<g opacity="0.2">
<g opacity="0.2">
<path opacity="0.2" d="M1194.16 468.773L1249.09 553.634L1283.94 529.81L1229.21 444.949L1194.16 468.773Z" fill="#152B4D"/>
</g>
</g>
<g opacity="0.2">
<g opacity="0.2">
<path opacity="0.2" d="M1061.67 446.968L1035.25 543.439L1072.66 553.683L1099.08 457.212L1061.67 446.968Z" fill="#152B4D"/>
</g>
</g>
</g>
<g opacity="0.2">
<g opacity="0.2">
<g opacity="0.2">
<path opacity="0.2" d="M1288.47 599.116H1240.43V699.138H1288.47V599.116Z" fill="#152B4D"/>
</g>
</g>
<g opacity="0.2">
<g opacity="0.2">
<path opacity="0.2" d="M1164.03 599.313H1115.99V699.335H1164.03V599.313Z" fill="#152B4D"/>
</g>
</g>
<g opacity="0.2">
<g opacity="0.2">
<path opacity="0.2" d="M1110.28 599.313H1062.24V699.335H1110.28V599.313Z" fill="#152B4D"/>
</g>
</g>
<g opacity="0.2">
<g opacity="0.2">
<path opacity="0.2" d="M1207.81 591.871L1170.4 602.115L1196.81 698.586L1234.22 688.342L1207.81 591.871Z" fill="#EEF5F8"/>
</g>
</g>
</g>
<path opacity="0.2" d="M1024.44 306.927H1014.99V699.335H1024.44V306.927Z" fill="white"/>
<path opacity="0.2" d="M1297.13 418.171H1019.71V427.622H1297.13V418.171Z" fill="white"/>
<path opacity="0.2" d="M1297.13 555.012H1019.71V564.463H1297.13V555.012Z" fill="white"/>
</g>
<path d="M1691.31 629.438H1731.48L1735.81 618.806H1695.65L1691.31 629.438Z" fill="#EEF5F8"/>
<path d="M1735.02 629.044H1692.89V633.179H1735.02C1736.21 633.179 1736.99 632.194 1736.99 631.21C1736.99 629.832 1736.01 629.044 1735.02 629.044Z" fill="#284C98"/>
<path d="M1673.79 616.246C1662.96 608.961 1649.38 612.899 1645.04 619.003C1641.3 612.899 1627.13 608.961 1616.3 616.246C1609.41 620.972 1599.17 618.806 1594.25 618.806L1599.56 631.604H1640.91H1648.98H1690.33L1695.65 618.806C1690.92 618.806 1680.68 620.972 1673.79 616.246Z" fill="white"/>
<path d="M1693.68 629.044H1649.77C1649.77 629.044 1649.77 629.044 1649.77 629.241C1649.77 630.029 1648.98 630.816 1648 630.816H1641.5C1640.52 630.816 1639.73 630.029 1639.73 629.241C1639.73 629.241 1639.73 629.241 1639.73 629.044H1595.82C1594.64 629.044 1593.85 630.029 1593.85 631.013C1593.85 632.194 1594.84 632.982 1595.82 632.982H1638.74C1639.33 632.982 1639.73 633.179 1640.12 633.573C1640.52 633.967 1640.91 634.163 1641.3 634.163H1647.8C1648.39 634.163 1648.79 633.967 1648.98 633.573C1649.38 633.179 1649.77 632.982 1650.36 632.982H1693.28C1694.46 632.982 1695.25 631.998 1695.25 631.013C1695.65 629.832 1694.86 629.044 1693.68 629.044Z" fill="#AFC4D5"/>
<path d="M1631.66 720.993C1604.68 700.517 1538.52 670.195 1525.92 669.407C1519.23 669.014 1485.76 692.641 1519.82 723.75C1541.28 743.242 1589.52 741.47 1625.95 744.424C1638.35 745.408 1643.08 729.854 1631.66 720.993Z" fill="#152B4D"/>
<path d="M1644.45 632.982C1642.68 633.77 1640.52 634.36 1638.55 634.36C1640.71 634.557 1640.52 635.935 1642.68 636.329C1643.67 636.329 1647.01 633.77 1646.62 632.982C1646.42 631.604 1645.44 632.391 1644.45 632.982Z" fill="#FCD2C6"/>
<path d="M1652.92 637.904C1652.53 637.707 1646.62 635.738 1643.86 635.148C1641.5 634.557 1639.14 634.36 1636.97 634.163C1636.77 634.163 1633.62 641.055 1633.23 643.614C1637.17 644.599 1649.18 646.371 1649.57 646.371C1654.3 647.946 1655.87 646.961 1655.28 645.583C1655.09 645.189 1658.63 645.386 1658.43 644.008C1658.43 644.008 1659.61 643.614 1659.61 642.63C1659.61 641.842 1658.63 640.267 1658.24 639.873C1657.25 639.086 1654.1 638.298 1652.92 637.904Z" fill="#FCD2C6"/>
<path d="M1572.59 606.401C1568.85 606.401 1563.73 608.764 1564.32 616.246C1565.11 624.516 1614.33 639.873 1634.61 643.811C1634.81 641.251 1635.99 637.904 1637.37 634.163C1624.96 631.998 1585.98 610.536 1574.56 606.598C1574.36 606.598 1573.57 606.401 1572.59 606.401Z" fill="#FCD2C6"/>
<path d="M1548.37 548.121C1547.19 546.546 1528.48 559.541 1526.32 562.888C1521.2 570.567 1553.29 608.173 1566.88 619.593C1572 623.925 1588.54 622.35 1577.31 604.432C1568.06 589.862 1554.87 556.784 1548.37 548.121Z" fill="#FCD2C6"/>
<path d="M1581.45 606.795C1580.86 605.614 1580.27 604.432 1579.48 603.251C1574.95 596.163 1569.44 584.349 1564.12 573.126C1558.81 561.904 1554.87 552.256 1550.54 542.017C1550.14 541.23 1531.04 544.38 1525.33 564.463C1521.99 576.671 1554.08 612.308 1565.11 621.562C1575.74 630.619 1616.5 643.024 1634.22 646.568L1637.96 631.998C1630.87 630.816 1612.95 622.153 1598.77 615.262C1592.28 611.914 1585.98 608.764 1581.45 606.795Z" fill="#00895A"/>
<path d="M1679.89 718.434C1645.64 697.957 1561.36 667.635 1545.22 666.848C1536.56 666.454 1494.03 690.081 1537.34 721.19C1564.71 740.683 1625.95 738.911 1672.41 741.864C1688.56 742.652 1694.66 727.097 1679.89 718.434Z" fill="#152B4D"/>
<path d="M1624.57 829.679C1623.78 835.388 1624.76 839.72 1624.76 839.72C1624.96 839.917 1631.07 839.917 1634.22 836.57C1634.22 836.57 1634.02 834.01 1635.2 830.269C1630.87 826.528 1625.16 829.875 1624.57 829.679Z" fill="#FCD2C6"/>
<path d="M1656.27 735.367C1639.93 783.212 1623.78 830.466 1623.78 830.466C1628.11 829.285 1633.62 831.451 1635.4 834.601C1635.4 834.601 1658.24 792.663 1686.2 742.455C1697.62 721.978 1666.9 703.864 1656.27 735.367Z" fill="#152B4D"/>
<path d="M1636.18 836.176C1634.61 834.798 1634.41 834.207 1634.41 834.207C1634.41 834.207 1626.93 832.435 1624.76 837.554C1624.76 837.554 1623.78 843.067 1626.34 846.021C1627.32 847.202 1632.84 853.109 1635.4 854.29C1637.56 855.275 1640.91 855.078 1644.65 854.684C1648.39 854.093 1652.92 851.731 1652.72 849.368C1652.33 844.839 1638.94 838.933 1636.18 836.176Z" fill="#FEBB12"/>
<path d="M1634.22 839.523C1630.47 836.964 1624.17 841.295 1628.51 847.399C1629.29 848.58 1633.82 853.306 1636.18 854.29C1637.96 855.078 1640.71 855.078 1644.06 854.487C1647.21 854.093 1650.95 851.928 1650.75 850.155C1650.36 846.414 1638.15 842.083 1634.22 839.523Z" fill="#FEBB12"/>
<path d="M1576.53 823.575C1574.75 827.119 1572.19 831.057 1572.19 831.057C1575.34 834.404 1583.61 837.161 1583.61 836.964C1583.61 836.964 1585.19 831.451 1586.37 825.741C1585.78 825.741 1580.66 819.637 1576.53 823.575Z" fill="#FCD2C6"/>
<path d="M1605.47 737.139C1589.13 784.984 1575.54 824.756 1575.54 824.756C1579.87 823.575 1585.19 825.938 1586.96 829.088C1586.96 829.088 1607.63 794.435 1635.4 744.227C1646.82 723.75 1616.3 705.636 1605.47 737.139Z" fill="#152B4D"/>
<path d="M1580.86 828.694C1578.1 827.513 1574.95 828.497 1572.78 830.466C1569.83 833.223 1556.64 839.129 1556.25 843.461C1556.05 845.627 1560.38 848.187 1564.32 848.777C1568.06 849.368 1571.41 849.368 1573.57 848.383C1576.33 847.202 1581.65 841.492 1582.63 840.114C1583.61 838.736 1584.01 835.979 1584.2 833.813C1584.2 831.844 1583.02 829.482 1580.86 828.694Z" fill="#FEBB12"/>
<path d="M1574.56 833.813C1570.82 836.373 1558.41 840.705 1558.21 844.446C1558.02 846.218 1561.76 848.383 1564.91 848.777C1568.06 849.171 1570.82 849.368 1572.78 848.58C1574.95 847.596 1579.68 842.674 1580.46 841.689C1584.6 835.782 1578.3 831.254 1574.56 833.813Z" fill="#FEBB12"/>
<path d="M1608.23 666.848C1597.99 669.801 1586.96 670.982 1575.34 670.786C1556.64 670.392 1538.13 667.832 1519.62 665.469C1515.29 664.879 1511.16 664.485 1507.02 663.697C1505.25 679.252 1503.87 694.807 1503.87 708.589C1505.64 708.786 1568.45 727.491 1593.46 719.221C1602.91 716.071 1613.94 710.755 1619.45 691.656C1611.77 686.931 1608.23 684.174 1608.23 666.848Z" fill="#EEF5F8"/>
<path d="M1557.82 513.074C1558.61 518.193 1557.03 532.763 1555.26 535.52C1559.59 545.168 1575.15 545.168 1576.33 539.458C1573.77 533.354 1576.53 522.131 1576.53 521.147C1572.59 521.54 1559.2 514.058 1557.82 513.074Z" fill="#FCD2C6"/>
<path d="M1572.19 494.369C1564.52 494.96 1559.99 501.457 1560.58 508.939L1561.17 516.815C1561.56 522.525 1570.82 530.794 1575.74 529.416C1587.35 526.266 1588.34 504.607 1587.75 502.245C1585.98 495.55 1579.28 493.975 1572.19 494.369Z" fill="#FCD2C6"/>
<path d="M1592.47 544.971C1589.91 543.593 1576.33 539.261 1576.33 539.261C1576.33 539.261 1571.41 541.427 1564.91 540.048C1557.62 538.473 1555.46 535.323 1555.46 535.323C1555.46 535.323 1543.45 537.883 1539.51 539.458C1504.66 554.028 1504.86 644.599 1504.46 698.548C1506.23 698.745 1508.2 698.941 1510.57 699.138L1517.26 665.076L1519.43 700.32C1542.66 703.864 1564.91 715.284 1594.05 709.18L1597 681.221L1599.96 707.999C1612.36 704.651 1617.68 691.853 1618.27 690.869C1603.3 669.014 1603.11 574.111 1602.91 567.81C1602.12 554.619 1602.12 550.681 1592.47 544.971Z" fill="#3EB57F"/>
<path d="M1591.88 496.929C1586.96 485.509 1568.26 477.239 1557.23 485.903C1547.39 493.581 1548.76 507.364 1554.67 516.618C1557.82 521.343 1551.91 520.359 1551.91 520.359C1551.91 520.359 1556.64 525.478 1561.96 527.25C1579.87 533.157 1591.49 509.136 1591.49 509.136C1591.49 509.136 1584.2 506.773 1586.37 506.97C1597.2 507.758 1599.56 502.835 1598.58 497.322C1598.97 499.488 1595.62 505.395 1591.88 496.929Z" fill="#BB2629"/>
<path d="M1691.91 629.438C1690.33 630.619 1688.36 631.604 1686.59 632.194C1688.75 631.801 1688.75 633.179 1691.12 633.179C1692.1 632.982 1694.86 629.832 1694.27 629.044C1693.48 627.863 1692.69 628.847 1691.91 629.438Z" fill="#FCD2C6"/>
<path d="M1706.67 632.982C1705.69 632.588 1702.54 632.588 1701.36 632.391C1700.96 632.391 1694.66 631.801 1691.9 631.801C1689.54 631.801 1687.18 631.998 1685.01 632.391C1684.82 632.391 1683.44 639.873 1683.64 642.433C1687.57 642.433 1699.78 641.449 1700.17 641.449C1705.1 642.039 1706.28 640.464 1705.49 639.48C1705.29 639.283 1708.64 638.495 1708.05 637.314C1708.05 637.314 1709.03 636.723 1708.84 635.739C1708.44 634.754 1707.26 633.376 1706.67 632.982Z" fill="#FCD2C6"/>
<path d="M1621.02 618.018C1617.28 617.821 1612.16 619.987 1612.56 627.666C1613.15 635.935 1663.75 637.708 1683.83 642.236C1684.23 639.676 1685.21 636.526 1686.98 632.785C1674.78 630.226 1634.41 622.744 1623.39 618.609C1622.6 618.215 1621.81 618.018 1621.02 618.018Z" fill="#FCD2C6"/>
<path d="M1598.38 558.95C1597.2 557.375 1578.1 569.976 1575.74 573.126C1570.42 580.608 1601.33 619.199 1614.72 631.013C1619.84 635.542 1636.38 634.36 1625.55 616.246C1616.69 601.282 1604.68 568.007 1598.38 558.95Z" fill="#FCD2C6"/>
<path d="M1613.34 584.349C1608.42 572.929 1604.68 563.282 1600.74 552.846C1600.35 552.059 1576.13 560.722 1571.6 572.339C1567.27 584.152 1602.12 623.137 1613.15 632.785C1623.39 642.039 1665.72 643.22 1683.44 644.599L1685.21 630.029C1678.12 628.65 1634.41 620.775 1629.88 618.412C1629.1 617.427 1618.27 595.769 1613.34 584.349Z" fill="#00895A"/>
<path d="M1565.3 477.83C1553.49 481.177 1544.83 486.69 1545.81 489.84L1551.13 508.348C1565.89 512.68 1591.69 503.623 1593.66 495.944L1588.34 477.436C1587.36 474.286 1577.12 474.483 1565.3 477.83Z" fill="#1D3878"/>
<path d="M1541.08 493.975H1538.52V523.706H1541.08V493.975Z" fill="#AFC4D5"/>
<path d="M1539.9 529.416C1541.64 529.416 1543.05 528.006 1543.05 526.266C1543.05 524.526 1541.64 523.115 1539.9 523.115C1538.16 523.115 1536.75 524.526 1536.75 526.266C1536.75 528.006 1538.16 529.416 1539.9 529.416Z" fill="#AFC4D5"/>
<path d="M1526.12 491.416L1570.23 497.913L1604.48 468.576L1559.59 462.669L1526.12 491.416Z" fill="#406DB5"/>
<path d="M1604.48 468.576L1570.23 497.913L1571.01 500.67L1605.27 471.136L1604.48 468.576Z" fill="#284C98"/>
<path d="M1570.23 497.913L1526.12 491.416L1526.91 493.975L1571.01 500.669L1570.23 497.913Z" fill="#284C98"/>
<path fill-rule="evenodd" clip-rule="evenodd" d="M1398.14 843.264C1398.14 858.819 1411.33 871.42 1427.67 871.617L1698.4 871.814V815.502L1426.1 815.108C1410.54 815.896 1398.14 828.103 1398.14 843.264Z" fill="white"/>
<path d="M1390.46 843.264C1390.46 863.15 1407 879.099 1427.48 879.296L1710.02 879.689V864.332L1427.67 863.741C1415.66 863.741 1405.82 854.487 1405.82 843.067C1405.82 826.922 1419.8 822.59 1426.49 822.59L1710.22 822.984V807.626L1426.1 807.233C1406.02 808.414 1390.46 824.165 1390.46 843.264Z" fill="#152B4D"/>
<path fill-rule="evenodd" clip-rule="evenodd" d="M1552.11 734.776L1279.81 735.17L1280 799.948L1550.34 799.554C1569.04 799.554 1584.2 784.984 1584.2 767.066C1584.2 749.74 1569.83 735.563 1552.11 734.776Z" fill="white"/>
<path d="M1552.11 727.097L1266.22 727.491V742.849L1551.72 742.455C1565.7 743.242 1576.53 754.071 1576.53 767.066C1576.53 773.564 1573.77 779.865 1569.04 784.393C1564.12 789.119 1557.43 791.875 1550.34 791.875L1266.22 792.269V807.627L1550.14 807.233C1561.17 807.233 1571.6 803.098 1579.48 795.616C1587.35 787.937 1591.69 777.896 1591.69 767.066C1591.69 745.802 1574.56 728.082 1552.11 727.097Z" fill="#FAA31B"/>
<path fill-rule="evenodd" clip-rule="evenodd" d="M1623.78 834.01L1623.98 899.97L1636.38 889.337L1648.59 899.773L1648.39 833.813L1623.78 834.01Z" fill="#BB2629"/>
<path fill-rule="evenodd" clip-rule="evenodd" d="M1445.59 832.238L1459.77 820.228L1473.94 832.435L1474.34 756.434L1445.99 756.237L1445.59 832.238Z" fill="#BB2629"/>
<path d="M1089.02 710.164L1122.69 879.296H1128.79L1094.92 710.164H1089.02Z" fill="#AFC4D5"/>
<path d="M1012.62 710.164L1046.29 879.296H1052.2L1018.53 710.164H1012.62Z" fill="#AFC4D5"/>
<path d="M1118.16 846.218H1045.11V851.14H1118.16V846.218Z" fill="#AFC4D5"/>
<path d="M1108.9 799.751H1035.86V804.673H1108.9V799.751Z" fill="#AFC4D5"/>
<path d="M1099.65 753.087H1026.6V758.009H1099.65V753.087Z" fill="#AFC4D5"/>
<path d="M1100.63 688.9H1035.27V710.361H1100.63V688.9Z" fill="#E4EDF8"/>
<path d="M1035.07 688.9H911.223V710.361H1035.07V688.9Z" fill="#EEF5F8"/>
<path d="M884.052 879.296H889.959L923.627 710.164H917.721L884.052 879.296Z" fill="#AFC4D5"/>
<path d="M960.446 879.296H966.353L1000.22 710.164H994.115L960.446 879.296Z" fill="#AFC4D5"/>
<path d="M967.534 846.218H894.487V851.14H967.534V846.218Z" fill="#AFC4D5"/>
<path d="M976.789 799.751H903.741V804.673H976.789V799.751Z" fill="#AFC4D5"/>
<path d="M986.043 753.087H912.995V758.009H986.043V753.087Z" fill="#AFC4D5"/>
<path d="M848.217 306.139V472.908L876.766 443.571L906.103 472.908V288.222C906.103 266.169 927.762 263.216 927.762 263.216H891.14C867.512 263.019 848.217 282.315 848.217 306.139Z" fill="#BB2629"/>
<path d="M543.229 749.149C546.773 746.393 551.105 745.408 555.436 745.999C567.644 747.377 577.488 757.025 588.318 763.325C591.862 765.294 596.39 766.87 598.753 763.129C600.131 760.963 600.131 757.615 598.95 755.056C596.981 750.33 593.043 748.165 589.105 746.196C577.095 739.895 564.69 733.791 554.058 724.144C543.229 714.496 534.172 700.91 531.612 685.356C530.431 678.267 531.219 669.604 538.897 668.817C541.26 668.62 543.623 669.407 545.789 670.589L569.613 684.962C572.369 686.537 575.126 683.387 573.747 679.843L560.162 643.614C557.602 636.92 555.239 630.225 555.633 622.94C555.83 619.987 556.618 617.034 558.193 614.671C564.1 605.811 575.519 611.127 582.805 618.412C596.39 631.997 605.644 651.884 608.401 672.361C608.794 675.708 609.188 679.252 611.748 681.221C614.308 683.19 617.655 682.402 619.624 679.843C622.774 675.905 622.577 669.998 622.38 664.485C622.183 657.791 621.986 650.702 627.302 646.764C631.634 643.614 637.147 644.599 641.479 648.537C649.748 656.215 650.93 669.013 650.536 680.433C649.748 698.547 645.023 715.874 637.147 730.444C634.194 735.957 630.65 741.47 629.665 748.165C628.484 756.237 632.619 766.869 640.297 765.688C642.463 765.294 644.235 764.113 645.81 762.341C649.748 757.616 650.733 750.921 652.505 744.817C654.671 736.745 659.396 727.885 666.878 730.247C669.241 731.035 671.407 732.807 672.982 735.17C676.723 740.683 677.313 747.574 677.313 754.071C677.313 767.066 674.754 779.668 670.225 790.891C664.121 806.051 654.474 821.212 641.873 828.694C620.214 841.492 591.468 818.062 571.582 805.658C561.737 799.554 551.302 793.844 543.426 783.802C535.747 773.761 532.203 757.419 543.229 749.149Z" fill="#00895A"/>
<path d="M587.924 661.925C588.317 661.728 588.514 661.925 588.711 662.319C611.157 728.869 626.515 798.373 634.587 868.86C634.587 869.254 634.39 869.648 634.194 869.648C633.8 869.648 633.603 869.254 633.406 868.86C625.333 798.569 609.976 729.066 587.53 662.713C587.53 662.516 587.727 661.925 587.924 661.925Z" fill="#006745"/>
<path d="M548.545 686.143C557.996 697.563 567.644 709.18 579.654 716.662C592.649 724.734 606.629 725.522 616.079 718.631C623.758 713.118 627.893 703.667 630.256 696.579C633.209 687.325 634.391 676.889 635.572 667.832C635.572 667.438 635.966 667.241 636.36 667.241C636.753 667.241 636.95 667.832 636.95 668.226C635.769 677.48 634.588 687.915 631.634 697.366C629.271 704.651 624.94 714.496 617.064 720.206C613.914 722.372 610.37 723.947 606.629 724.538C598.359 725.916 588.711 723.75 579.654 718.237C567.644 710.755 557.799 698.941 548.348 687.522C548.151 687.128 548.151 686.734 548.348 686.34C547.954 685.749 548.348 685.749 548.545 686.143Z" fill="#006745"/>
<path d="M555.239 768.445C568.628 780.652 580.638 788.331 593.437 796.601L596.39 798.373C611.354 808.02 627.105 809.399 638.525 802.114C651.914 793.45 658.018 774.155 661.365 760.372C661.365 759.978 661.759 759.781 662.152 759.978C662.546 760.175 662.743 760.569 662.546 760.963C659.002 774.942 652.898 794.632 639.116 803.492C635.769 805.658 632.028 807.036 627.893 807.823C618.048 809.596 606.628 806.839 595.799 799.751L592.846 797.979C580.048 789.709 568.037 782.03 554.649 769.823C554.452 769.626 554.255 769.035 554.452 768.642C554.649 768.248 555.042 768.248 555.239 768.445Z" fill="#006745"/>
<path d="M643.251 771.201C644.039 771.398 644.826 771.792 645.417 772.383L651.324 779.077C651.914 779.865 653.49 779.077 653.686 777.896L655.065 765.294C655.262 762.932 655.459 760.569 656.837 758.403C657.427 757.419 658.215 756.631 659.003 756.04C662.547 753.875 665.5 756.631 666.878 759.584C669.241 765.097 669.241 772.186 666.878 778.683C666.485 779.668 666.091 780.849 666.681 781.833C667.272 782.621 668.454 782.818 669.635 782.227C671.407 781.243 672.194 779.471 673.179 777.699C674.163 775.73 675.345 773.367 677.708 772.776C679.676 772.186 681.448 772.973 682.236 774.745C683.811 777.896 682.236 782.03 680.07 785.378C676.92 790.891 672.391 795.813 667.272 799.554C665.303 800.932 663.334 802.31 661.759 804.279C659.987 806.642 659.79 810.383 662.547 810.777C663.334 810.974 664.122 810.777 664.909 810.383C667.075 809.399 668.454 807.43 670.029 805.658C671.998 803.295 675.148 801.129 677.314 802.507C677.904 802.901 678.495 803.689 678.495 804.673C678.889 806.642 677.904 809.005 676.92 810.974C674.754 814.912 671.801 818.652 668.453 821.606C663.925 825.741 658.018 829.482 652.505 830.466C643.054 832.435 636.951 822.197 632.225 816.487C629.862 813.533 627.303 810.974 626.121 807.036C625.137 803.295 626.515 797.979 631.634 796.404C633.21 796.01 634.982 796.01 636.36 796.6C640.298 798.176 642.07 802.113 644.826 805.067C645.614 806.051 646.992 806.839 648.37 806.051C649.158 805.461 649.749 804.476 649.749 803.492C649.749 801.917 648.764 800.735 647.78 799.751C644.629 796.6 641.479 793.45 639.313 789.512C637.147 785.574 636.163 780.455 637.935 775.336C638.919 773.17 640.495 770.611 643.251 771.201Z" fill="#006745"/>
<path d="M661.956 773.958C658.806 796.797 652.702 819.637 643.842 842.28C643.645 842.673 643.251 842.87 642.858 842.87C642.858 842.87 642.661 842.87 642.661 842.674C642.464 842.477 642.464 842.28 642.464 841.886C651.127 819.44 657.231 796.6 660.381 773.958C660.381 773.564 660.775 773.17 661.169 773.17C661.759 773.367 661.956 773.564 661.956 773.958Z" fill="#055736"/>
<path d="M644.236 777.305C645.614 781.636 646.993 786.165 649.749 789.512C652.703 793.056 657.231 794.631 661.563 793.647C664.91 792.662 667.863 790.3 669.832 788.331C672.392 785.771 674.361 782.818 676.33 780.061C676.527 779.668 677.117 779.471 677.314 779.667C677.511 779.864 677.708 780.258 677.314 780.652C675.345 783.408 673.179 786.559 670.62 789.118C668.651 791.284 665.304 793.844 661.563 794.828C657.625 795.813 653.884 795.025 650.734 792.466C649.946 791.875 649.355 791.087 648.568 790.497C645.614 786.953 644.236 782.227 642.858 777.895C642.661 777.502 643.055 777.108 643.252 776.911C643.645 776.714 644.039 776.911 644.236 777.305Z" fill="#055736"/>
<path d="M633.013 803.295C635.572 808.217 638.526 811.761 641.479 815.502L642.07 816.29C645.614 820.622 650.536 822.59 655.656 821.409C661.562 820.031 666.682 814.715 670.029 810.974C670.226 810.58 670.817 810.58 671.013 810.777C671.21 810.974 671.21 811.564 671.013 811.761C667.469 815.896 661.956 821.409 655.656 822.787C651.324 823.772 647.189 822.787 643.645 820.031C642.661 819.243 641.873 818.456 641.086 817.471L640.495 816.684C637.345 812.943 634.588 809.399 632.028 804.279C631.832 803.886 632.028 803.492 632.422 803.295C632.422 802.901 632.816 802.901 633.013 803.295Z" fill="#055736"/>
<path d="M620.214 827.906H665.303C666.878 827.906 668.256 829.875 667.863 831.844L666.287 841.098C666.091 842.477 664.909 843.658 663.728 843.658H621.986C620.805 843.658 619.821 842.674 619.427 841.098L617.852 831.844C617.458 829.875 618.639 827.906 620.214 827.906Z" fill="#8E0F1B"/>
<path d="M659.396 875.751C659.199 877.917 657.624 879.492 656.049 879.492H629.665C627.893 879.492 626.515 877.917 626.318 875.751L622.774 843.855H663.334L659.396 875.751Z" fill="#BB2629"/>
<path d="M1147.69 414.824C1145.92 415.415 1143.75 416.005 1141.79 416.005C1143.95 416.202 1143.75 417.58 1145.92 418.171C1146.9 418.171 1150.25 415.808 1150.06 415.021C1149.66 413.643 1148.68 414.43 1147.69 414.824Z" fill="#E68969"/>
<path d="M1155.96 420.14C1155.57 419.943 1149.66 417.777 1146.9 417.187C1144.54 416.596 1142.18 416.202 1140.01 416.005C1139.82 416.005 1136.47 422.897 1136.08 425.259C1139.82 426.244 1152.02 428.41 1152.22 428.607C1156.75 430.379 1158.52 429.394 1157.93 428.016C1157.73 427.622 1161.28 427.819 1161.08 426.441C1161.08 426.441 1162.26 426.244 1162.26 425.062C1162.26 424.275 1161.47 422.503 1160.88 422.109C1160.1 421.518 1157.14 420.731 1155.96 420.14Z" fill="#F8A479"/>
<path d="M1076.81 385.881C1073.07 385.684 1067.75 387.85 1068.34 395.332C1068.74 403.601 1117.57 420.731 1137.65 425.456C1138.04 422.897 1139.23 419.746 1140.8 416.005C1128.59 413.446 1090.2 390.606 1078.98 386.275C1078.39 386.078 1077.6 386.078 1076.81 385.881Z" fill="#FCD2C6"/>
<path d="M1054.56 326.813C1053.38 325.237 1034.28 337.642 1031.92 340.989C1026.6 348.471 1057.32 387.259 1070.51 399.072C1075.63 403.601 1092.17 402.617 1081.34 384.305C1072.68 369.145 1060.86 335.87 1054.56 326.813Z" fill="#FCD2C6"/>
<path d="M1069.33 352.212C1064.41 340.792 1059.29 328.979 1056.14 324.253C1055.55 323.466 1055.35 324.253 1054.36 324.056C1050.23 323.859 1032.51 335.87 1029.95 339.217C1022.66 349.455 1058.11 390.803 1068.93 400.451C1079.17 409.902 1119.54 423.684 1137.26 427.819L1141.39 413.446C1134.3 411.871 1090.2 388.637 1085.67 386.471C1084.88 385.29 1074.25 363.632 1069.33 352.212Z" fill="#D33227"/>
<path d="M1026.8 674.33C1025.42 672.754 1023.85 670.195 1023.85 670.195L1016.17 674.527C1016.17 674.527 1015.58 675.314 1015.97 677.874C1015.97 677.874 1014.79 680.63 1016.36 682.993C1017.15 684.371 1022.27 686.537 1024.63 687.128C1026.8 687.915 1029.95 688.506 1033.89 688.309C1037.63 688.112 1042.35 686.143 1042.35 683.977C1041.96 679.646 1029.36 677.48 1026.8 674.33Z" fill="#BB2629"/>
<path d="M1026.01 669.998L1015.58 671.77C1015.58 671.77 1015.38 675.314 1015.77 677.677C1015.77 677.677 1020.7 679.449 1022.27 678.465C1025.22 676.889 1026.8 674.133 1026.8 674.133C1024.83 671.967 1026.01 669.998 1026.01 669.998Z" fill="#F8A479"/>
<path d="M993.722 428.607V477.436C997.266 480.39 1018.53 535.52 1027.78 567.417C1028.18 568.401 1014.59 662.122 1014.59 672.164C1018.33 676.299 1026.01 672.164 1026.01 671.77C1026.01 671.77 1055.35 624.319 1060.07 567.023C1065.59 500.473 1046.49 429.788 1045.7 424.472C1039.4 427.032 1012.43 429.788 993.722 428.607Z" fill="#284C98"/>
<path d="M968.125 675.708C966.944 673.936 965.369 671.376 965.369 671.376L957.296 675.117C957.296 675.117 956.509 675.905 956.902 678.464C956.902 678.464 955.524 681.221 956.705 683.584C957.493 684.962 962.219 686.734 964.581 688.309C966.55 689.687 969.897 690.081 973.638 690.278C977.379 690.475 982.302 688.9 982.499 686.537C982.695 682.205 970.488 679.055 968.125 675.708Z" fill="#BB2629"/>
<path d="M966.944 671.179L956.706 672.361C956.706 672.361 956.509 676.102 956.706 678.465C956.706 678.465 961.431 680.63 963.203 679.843C966.354 678.465 968.126 675.905 968.126 675.905C966.354 673.148 966.944 671.179 966.944 671.179Z" fill="#F8A479"/>
<path d="M966.353 417.581C943.12 461.685 973.835 526.266 977.773 568.007C977.773 568.007 955.918 625.303 955.918 672.558C959.462 677.086 967.141 673.542 967.338 673.148C967.338 654.05 1005.73 605.614 1009.87 570.764C1017.94 504.214 1012.23 433.529 1012.03 428.016C1005.73 419.943 982.499 410.69 966.353 417.581Z" fill="#284C98"/>
<path d="M1019.51 285.859C1019.91 291.175 1017.55 305.351 1015.58 308.108C1019.32 317.953 1034.87 318.937 1036.25 313.424C1034.08 307.123 1037.43 296.097 1037.63 295.113C1033.69 295.113 1020.89 286.843 1019.51 285.859Z" fill="#F8A479"/>
<path d="M1034.87 268.138C1027.19 268.138 1022.27 274.439 1022.27 281.921V289.797C1022.27 295.507 1031.13 304.367 1036.05 303.382C1047.87 300.823 1050.23 279.361 1049.84 276.999C1048.65 270.107 1041.96 268.138 1034.87 268.138Z" fill="#F8A479"/>
<path d="M1052.2 319.921C1049.84 318.346 1036.45 313.227 1036.45 313.227C1036.45 313.227 1032.9 317.165 1029.16 316.574C1023.65 315.787 1015.77 307.911 1015.77 307.911C1015.77 307.911 1003.57 309.683 999.628 311.061C964.778 322.678 945.876 365.601 951.98 467.788C953.752 467.985 958.478 468.182 960.643 468.576L967.141 435.892L969.504 470.545C1003.76 486.296 1050.62 474.877 1054.36 449.477C1052.2 432.544 1051.61 416.99 1051.81 403.601C1051.81 398.482 1052 393.756 1052.2 389.228C1053.38 367.373 1056.14 352.803 1056.53 349.259C1057.32 338.429 1061.45 326.025 1052.2 319.921Z" fill="#BB2629"/>
<path d="M1028.97 316.574C1023.45 315.787 1015.58 307.911 1015.58 307.911C1015.58 307.911 1009.28 308.698 1007.31 309.092C1002.98 309.683 999.432 311.061 999.432 311.061C1014.4 319.528 1036.64 341.58 1036.64 341.58C1036.64 341.58 1047.08 329.175 1048.65 317.952C1045.7 316.18 1036.25 313.03 1036.25 313.03C1036.25 313.03 1032.71 317.165 1028.97 316.574Z" fill="#284C98"/>
<path d="M1019.32 255.931C1008.49 265.579 1010.06 283.89 1019.32 292.159C1019.32 292.159 1020.89 280.149 1024.63 274.833C1055.74 281.724 1059.09 273.651 1058.89 270.304C1058.5 255.34 1033.49 243.33 1019.32 255.931Z" fill="#162B4D"/>
<path d="M1021.09 278.968C1019.12 279.164 1017.74 282.118 1017.94 284.087C1018.14 285.859 1020.89 288.418 1022.66 288.615C1023.06 286.45 1024.04 282.118 1024.24 279.558C1023.26 278.771 1021.88 278.771 1021.09 278.968Z" fill="#F8A479"/>
<path d="M987.618 258.688L1032.51 264.594L1065.98 235.848L1021.88 229.351L987.618 258.688Z" fill="#1D3878"/>
<path d="M1026.01 241.755C1014.2 245.102 1005.54 250.615 1006.52 253.765C1006.52 253.765 1011.44 270.895 1011.84 272.273C1011.64 271.682 1021.09 268.335 1032.71 264.791C1044.52 261.444 1054.17 259.081 1054.37 259.869C1053.97 258.491 1049.05 241.361 1049.05 241.361C1048.06 238.211 1037.83 238.408 1026.01 241.755Z" fill="#284C98"/>
<path d="M986.831 256.128L987.618 258.688L1021.88 229.351L1021.09 226.594L986.831 256.128Z" fill="#284C98"/>
<path d="M1021.09 226.594L1021.88 229.351L1065.98 235.848L1065.19 233.288L1021.09 226.594Z" fill="#284C98"/>
<path d="M1001.79 257.9H999.235V287.631H1001.79V257.9Z" fill="#1D3878"/>
<path d="M1000.61 293.341C1002.35 293.341 1003.76 291.93 1003.76 290.191C1003.76 288.451 1002.35 287.04 1000.61 287.04C998.873 287.04 997.463 288.451 997.463 290.191C997.463 291.93 998.873 293.341 1000.61 293.341Z" fill="#1D3878"/>
<path opacity="0.55" d="M981.711 358.513C989.193 374.855 1014.59 407.933 1016.76 410.099C1019.32 412.461 1036.25 416.99 1050.23 416.202C1051.61 411.28 1002.58 365.601 1001.6 350.637C1001.2 342.564 976.198 346.502 981.711 358.513Z" fill="#812D53"/>
<path d="M1103.98 415.218C1102.21 416.006 1100.04 416.596 1098.07 416.596C1100.24 416.793 1100.04 418.171 1102.21 418.565C1103.19 418.565 1106.54 416.202 1106.15 415.218C1105.95 413.84 1104.97 414.627 1103.98 415.218Z" fill="#E68969"/>
<path d="M1112.45 420.337C1112.05 420.14 1106.15 418.171 1103.39 417.581C1101.03 416.99 1098.67 416.596 1096.5 416.596C1096.3 416.596 1093.15 423.487 1092.76 425.85C1096.5 426.835 1108.71 428.607 1109.1 428.804C1113.63 430.576 1115.4 429.394 1114.81 428.016C1114.61 427.622 1118.16 427.819 1117.96 426.441C1117.96 426.441 1119.14 426.047 1119.14 425.063C1119.14 424.275 1118.16 422.7 1117.76 422.306C1116.78 421.519 1113.63 420.731 1112.45 420.337Z" fill="#F8A479"/>
<path d="M1041.17 388.44C1040.58 387.259 1039.99 386.078 1039.2 384.896C1034.68 377.611 1029.36 365.995 1024.24 354.575C1019.12 343.352 1014.2 332.72 1010.85 327.994C1010.26 327.207 1009.47 326.813 1008.49 326.813C1004.35 326.813 986.83 339.217 984.467 342.761C977.379 353.196 1013.8 393.56 1024.83 403.01C1035.27 412.264 1076.02 424.866 1093.74 428.607L1097.68 414.037C1090.59 412.658 1072.87 403.995 1058.5 396.907C1052 393.56 1045.7 390.606 1041.17 388.44Z" fill="#D33227"/>
<path fill-rule="evenodd" clip-rule="evenodd" d="M1062.44 369.145H1158.72V353.197H1062.44V369.145Z" fill="#FFC50D"/>
<path fill-rule="evenodd" clip-rule="evenodd" d="M1056.92 333.31C1052 333.507 1048.06 337.445 1048.06 342.17C1048.06 347.093 1052.2 351.03 1057.52 351.03L1164.43 350.834V332.916L1056.92 333.31Z" fill="white"/>
<path d="M1057.52 348.668C1055.55 348.668 1053.97 347.88 1052.59 346.699C1051.21 345.518 1050.62 343.942 1050.62 342.17C1050.62 338.626 1053.38 335.87 1056.92 335.673L1167.97 335.476V330.75L1056.73 330.947C1050.43 331.341 1045.7 336.263 1045.7 342.367C1045.7 345.321 1046.88 348.274 1049.25 350.44C1051.41 352.606 1054.36 353.787 1057.52 353.787L1168.17 353.59V348.865L1057.52 348.668Z" fill="#8E0F1B"/>
<path fill-rule="evenodd" clip-rule="evenodd" d="M1138.44 342.564L1138.64 359.891L1142.38 356.543L1146.31 359.891V342.564H1138.44Z" fill="#284C98"/>
<path fill-rule="evenodd" clip-rule="evenodd" d="M1044.32 417.581L1185.3 417.778V396.71L1044.52 396.316L1044.32 417.581Z" fill="#D4E1EA"/>
<path d="M1176.83 397.498H1172.11V417.384H1176.83V397.498Z" fill="white"/>
<path d="M1167.19 397.498H1162.46V417.384H1167.19V397.498Z" fill="white"/>
<path fill-rule="evenodd" clip-rule="evenodd" d="M1039.01 331.341L1164.23 330.554L1164.43 311.652L1039.01 311.455V331.341Z" fill="#D4E1EA"/>
<path d="M1051.21 316.968C1049.05 316.968 1047.08 318.74 1047.08 321.103C1047.08 323.269 1048.85 325.238 1051.21 325.238C1053.38 325.238 1055.35 323.466 1055.35 321.103C1055.35 318.74 1053.38 316.968 1051.21 316.968Z" fill="#AFC4D5"/>
<path fill-rule="evenodd" clip-rule="evenodd" d="M1169.15 371.311L1060.47 371.114V394.15L1168.37 394.347C1175.06 394.347 1180.38 389.228 1180.38 382.927C1180.57 376.824 1175.45 371.704 1169.15 371.311Z" fill="white"/>
<path d="M1169.15 368.948L1055.74 368.751V373.476L1169.15 373.673C1174.27 373.87 1178.21 378.005 1178.21 382.73C1178.21 385.093 1177.23 387.456 1175.45 389.031C1173.68 390.803 1171.12 391.788 1168.56 391.788H1055.55V396.513L1168.37 396.71C1172.11 396.71 1175.85 395.332 1178.6 392.772C1181.36 390.212 1182.94 386.668 1182.94 382.927C1182.94 375.445 1176.83 369.342 1169.15 368.948Z" fill="#EEF5F8"/>
<path fill-rule="evenodd" clip-rule="evenodd" d="M1101.62 405.767L1106.74 401.435L1111.66 405.767L1111.86 379.58H1101.82L1101.62 405.767Z" fill="#BB2629"/>
<path d="M1235.11 374.658C1232.55 373.476 1226.45 371.704 1226.06 371.704C1224.87 371.311 1221.72 370.326 1220.74 370.326C1220.15 370.326 1218.38 371.114 1217.98 371.901C1217.39 372.689 1218.18 373.673 1218.18 373.673C1217.2 374.658 1220.15 376.627 1219.75 376.824C1218.57 377.611 1219.16 379.383 1224.09 380.762C1224.28 380.762 1235.31 386.275 1239.05 387.653C1240.04 385.487 1241.41 378.005 1241.41 377.808C1239.44 376.627 1237.28 375.642 1235.11 374.658Z" fill="#B07550"/>
<path d="M1363.29 357.331C1352.86 360.875 1323.32 380.564 1307.37 387.259C1287.88 395.528 1300.48 406.161 1307.37 405.57C1325.09 403.995 1372.94 391.394 1373.14 382.14C1373.14 378.202 1365.06 356.74 1363.29 357.331Z" fill="#FCD2C6"/>
<path d="M1309.93 391.591C1309.14 391.197 1308.55 390.803 1307.96 390.606C1296.54 387.456 1252.05 382.73 1240.82 377.414C1239.84 381.352 1238.85 384.699 1237.67 386.865C1256.57 395.135 1305.99 410.492 1311.31 404.192C1316.04 398.482 1313.08 393.56 1309.93 391.591Z" fill="#B07550"/>
<path d="M1366.83 353.196C1333.36 365.404 1306.39 387.456 1305.21 388.047C1300.28 387.259 1293.59 386.274 1286.7 385.29C1271.34 383.124 1252.24 380.565 1245.74 377.611L1240.82 391.394C1257.16 398.285 1296.94 410.295 1310.33 408.72C1324.31 407.342 1374.12 394.741 1374.12 382.337C1374.32 378.202 1370.57 351.621 1366.83 353.196Z" fill="#FAA31B"/>
<path d="M1398.34 562.1C1397.35 568.795 1401.09 717.253 1401.09 717.253C1401.09 717.449 1406.8 718.434 1410.54 715.874C1410.54 715.874 1427.87 571.748 1428.27 568.795C1425.71 570.961 1401.88 565.251 1398.34 562.1Z" fill="#B07550"/>
<path d="M1412.51 715.677C1411.33 713.905 1409.76 711.346 1409.76 711.346L1401.68 715.087C1401.68 715.087 1401.09 715.874 1401.29 718.434C1401.29 718.434 1399.91 721.19 1401.29 723.553C1402.08 724.931 1407 727.294 1409.17 728.279C1411.33 729.066 1414.48 730.051 1418.22 730.051C1421.96 730.051 1426.89 728.475 1426.89 726.31C1427.28 721.978 1414.88 718.828 1412.51 715.677Z" fill="#284C98"/>
<path d="M1443.43 704.651C1441.85 702.682 1440.87 702.485 1440.87 702.485L1432.4 705.045C1432.4 705.045 1432.99 707.999 1433.19 710.164C1433.58 714.102 1426.49 724.734 1429.64 727.885C1431.22 729.46 1435.94 727.491 1438.7 724.931C1441.46 722.372 1443.62 719.812 1444.21 717.449C1445 714.496 1447.36 710.164 1446.97 708.589C1446.18 705.833 1443.43 704.651 1443.43 704.651Z" fill="#284C98"/>
<path d="M1432.01 705.045C1432.01 705.045 1432.99 707.014 1433.38 710.164C1433.38 710.164 1436.34 710.952 1439.68 709.967C1441.46 709.377 1443.62 704.848 1443.62 704.848C1442.24 702.879 1441.06 701.501 1441.06 701.501L1432.01 705.045Z" fill="#B07550"/>
<path d="M1406.21 470.939C1387.7 473.105 1363.29 471.923 1356.99 469.561C1356.6 474.877 1363.09 542.017 1370.77 606.795C1374.51 637.904 1432.79 707.014 1432.79 707.014C1432.99 707.408 1439.49 708.195 1443.03 703.864C1443.03 703.864 1403.65 625.106 1404.44 605.22C1406.61 560.525 1411.53 503.623 1406.21 470.939Z" fill="#D33227"/>
<path d="M1400.9 714.299C1400.9 714.299 1400.9 715.874 1401.29 718.434C1401.29 718.434 1406.02 720.403 1407.79 719.615C1410.74 718.237 1412.51 715.677 1412.51 715.677C1410.74 713.118 1409.95 710.952 1409.95 710.952L1400.9 714.299Z" fill="#B07550"/>
<path d="M1397.94 460.897C1397.94 460.897 1392.04 555.997 1395.78 602.464C1399.91 656.019 1400.31 712.724 1400.31 712.724C1403.85 717.056 1411.53 713.512 1411.73 713.118C1411.73 713.118 1450.91 469.954 1450.12 460.11C1443.82 462.275 1416.65 463.26 1397.94 460.897Z" fill="#BB2629"/>
<path d="M1359.35 461.488L1352.85 487.281C1355.61 489.841 1367.43 494.369 1373.92 493.188C1376.88 492.597 1384.95 475.861 1384.95 475.861L1390.66 492.991C1415.07 498.701 1453.86 488.265 1453.86 488.265C1453.86 471.136 1452.09 451.446 1452.09 451.446L1359.35 461.488Z" fill="#8E0F1B"/>
<path d="M1400.7 318.346C1399.52 319.331 1386.33 327.207 1382.39 326.813C1382.39 327.797 1385.54 339.02 1383.18 345.124C1384.36 350.637 1400.11 350.243 1404.05 340.595C1402.08 338.036 1400.11 323.466 1400.7 318.346Z" fill="#B07550"/>
<path d="M1420 344.336C1416.06 343.549 1404.05 340.595 1404.05 340.595C1404.05 340.595 1395.97 348.274 1390.46 348.865C1386.72 349.259 1383.37 345.321 1383.37 345.321C1383.37 345.321 1369.79 350.046 1367.42 351.424C1357.97 357.331 1356.2 366.979 1357.78 374.658C1363.29 401.632 1351.28 464.441 1359.35 467.985C1369.98 472.514 1429.45 475.664 1452.09 460.503C1454.06 459.322 1455.04 456.959 1454.85 454.793C1453.47 441.011 1448.35 389.622 1441.26 367.176C1438.11 357.331 1432.01 346.699 1420 344.336Z" fill="#FAA31B"/>
<path d="M1383.96 338.626C1382.98 332.129 1382.19 325.238 1383.96 320.315C1383.77 320.118 1374.51 309.683 1370.97 314.802C1368.61 321.103 1367.82 328.782 1369.59 336.658C1372.15 348.274 1369 356.938 1366.83 360.482C1363.49 366.782 1363.09 375.249 1363.29 379.383C1364.67 403.208 1378.45 414.824 1382.59 412.658C1387.11 410.296 1376.29 387.062 1382 365.798C1386.52 350.834 1385.15 344.927 1383.96 338.626Z" fill="#152B4D"/>
<path d="M1384.75 299.051C1377.66 298.854 1372.15 301.807 1370.77 308.698C1370.38 311.061 1372.15 332.719 1383.77 335.476C1388.69 336.657 1397.75 327.994 1397.94 322.284C1397.94 322.284 1398.14 314.605 1398.14 314.408C1398.34 306.926 1392.43 299.248 1384.75 299.051Z" fill="#B07550"/>
<path d="M1418.22 327.797C1422.56 314.802 1418.03 302.201 1410.74 293.931C1403.46 285.662 1393.42 283.496 1387.9 285.662C1381.01 288.615 1381.01 291.963 1381.01 291.963C1381.01 291.963 1377.47 291.175 1373.73 293.144C1365.46 297.672 1366.05 316.18 1372.54 321.89C1368.21 302.004 1380.81 298.657 1380.81 298.657C1380.81 298.657 1389.48 299.641 1393.81 304.564C1397.75 309.092 1401.68 321.497 1399.32 330.947C1397.55 338.232 1391.84 343.352 1397.75 360.285C1406.21 384.699 1388.49 410.689 1395.58 413.643C1402.08 416.202 1423.74 403.207 1426.69 376.233C1427.08 371.704 1426.89 361.86 1421.77 354.772C1418.81 350.834 1413.89 340.792 1418.22 327.797Z" fill="#152B4D"/>
<path d="M1397.75 311.455C1396.96 311.455 1395.58 311.849 1394.6 312.636C1395.38 315.196 1397.35 319.134 1398.14 321.103C1399.91 320.512 1401.88 317.559 1401.88 315.59C1401.68 313.818 1399.72 311.258 1397.75 311.455Z" fill="#B07550"/>
<path d="M1364.47 268.139L1397.94 296.885L1443.03 290.978L1408.58 261.641L1364.47 268.139Z" fill="#1D3878"/>
<path d="M1404.44 274.045C1392.63 270.698 1382.39 270.501 1381.4 273.651C1381.4 273.651 1376.48 290.781 1376.09 292.159C1376.29 291.569 1385.93 293.735 1397.75 297.082C1409.56 300.429 1418.81 303.776 1418.62 304.564C1419.01 303.185 1423.93 286.056 1423.93 286.056C1424.92 282.905 1416.25 277.589 1404.44 274.045Z" fill="#284C98"/>
<path d="M1408.58 261.641L1443.03 290.978L1443.62 288.419L1409.36 258.885L1408.58 261.641Z" fill="#284C98"/>
<path d="M1364.47 268.139H1364.67L1408.58 261.641L1409.36 258.885L1365.26 265.579L1364.47 268.139Z" fill="#284C98"/>
<path d="M1431.81 290.191H1429.25V319.922H1431.81V290.191Z" fill="#1D3878"/>
<path d="M1430.04 319.331C1428.27 319.331 1426.89 320.709 1426.89 322.481C1426.89 324.253 1428.27 325.631 1430.04 325.631C1431.81 325.631 1433.19 324.253 1433.19 322.481C1433.19 320.709 1431.81 319.331 1430.04 319.331Z" fill="#1D3878"/>
<path d="M1299.69 374.658C1297.13 373.476 1291.03 371.704 1290.64 371.704C1289.46 371.311 1286.3 370.326 1285.32 370.326C1284.73 370.326 1282.96 371.114 1282.56 371.901C1281.97 372.689 1282.76 373.673 1282.76 373.673C1281.78 374.658 1284.73 376.627 1284.34 376.824C1283.15 377.611 1283.75 379.383 1288.67 380.762C1288.86 380.762 1299.89 386.275 1303.63 387.653C1304.62 385.487 1305.99 378.005 1305.99 377.808C1304.03 376.627 1301.86 375.642 1299.69 374.658Z" fill="#B07550"/>
<path d="M1427.87 357.331C1417.44 360.875 1387.9 380.564 1371.95 387.259C1352.46 395.528 1365.06 406.161 1371.95 405.57C1389.67 403.995 1437.52 391.394 1437.72 382.14C1437.72 378.202 1429.64 356.74 1427.87 357.331Z" fill="#FCD2C6"/>
<path d="M1374.71 391.591C1373.92 391.197 1373.33 390.803 1372.74 390.606C1361.32 387.456 1316.82 382.73 1305.6 377.414C1304.62 381.352 1303.63 384.699 1302.45 386.865C1321.35 395.135 1370.77 410.492 1376.09 404.192C1380.62 398.482 1377.66 393.56 1374.71 391.591Z" fill="#B07550"/>
<path d="M1431.42 353.196C1397.94 365.404 1370.97 387.456 1369.79 388.047C1364.87 387.259 1358.17 386.274 1351.28 385.29C1335.92 383.124 1316.82 380.565 1310.33 377.611L1305.4 391.394C1321.75 398.285 1361.52 410.295 1374.91 408.72C1388.89 407.342 1438.7 394.741 1438.7 382.337C1438.9 378.202 1435.16 351.621 1431.42 353.196Z" fill="#FFC50D"/>
<path d="M1192.98 626.091C1192.39 626.288 1191.8 626.681 1191.21 627.075L1186.48 632.391C1185.89 632.982 1184.71 632.391 1184.71 631.407L1183.72 621.365C1183.53 619.593 1183.33 617.624 1182.35 615.852C1181.95 615.065 1181.36 614.474 1180.57 614.08C1177.82 612.308 1175.45 614.474 1174.27 616.837C1172.3 621.168 1172.3 626.878 1174.27 632.194C1174.67 632.982 1175.06 633.966 1174.47 634.754C1174.08 635.542 1173.09 635.542 1172.11 634.951C1170.73 634.163 1169.94 632.785 1169.35 631.407C1168.56 629.832 1167.58 628.06 1165.61 627.469C1164.03 627.075 1162.66 627.666 1161.87 629.044C1160.69 631.604 1161.87 634.754 1163.64 637.511C1166.2 641.842 1169.74 645.78 1173.88 648.733C1175.45 649.915 1177.03 650.899 1178.21 652.474C1179.59 654.443 1179.79 657.2 1177.62 657.594C1177.03 657.594 1176.24 657.594 1175.65 657.2C1173.88 656.412 1172.7 654.837 1171.52 653.459C1169.94 651.687 1167.38 649.915 1165.61 650.899C1165.02 651.293 1164.62 651.884 1164.62 652.474C1164.23 654.05 1165.02 655.822 1165.81 657.594C1167.58 660.744 1169.74 663.697 1172.5 666.06C1176.24 669.407 1180.77 672.361 1185.3 673.148C1192.98 674.723 1197.7 666.651 1201.64 661.925C1203.61 659.563 1205.58 657.397 1206.56 654.246C1207.35 651.293 1206.17 646.961 1202.03 645.78C1200.66 645.386 1199.47 645.583 1198.29 645.977C1195.14 647.158 1193.76 650.506 1191.6 652.868C1190.81 653.656 1189.83 654.443 1188.65 653.656C1188.05 653.262 1187.66 652.474 1187.46 651.687C1187.46 650.309 1188.25 649.521 1189.04 648.733C1191.6 646.174 1194.16 643.811 1195.73 640.661C1197.51 637.511 1198.1 633.376 1196.92 629.241C1196.52 627.666 1195.34 625.697 1192.98 626.091Z" fill="#00895A"/>
<path d="M1178.21 628.453C1180.77 646.765 1185.69 665.076 1192.58 683.19C1192.78 683.584 1192.98 683.781 1193.37 683.584H1193.57C1193.77 683.387 1193.77 683.19 1193.77 682.993C1186.68 665.076 1181.95 646.765 1179.39 628.65C1179.39 628.257 1179 628.06 1178.8 628.06C1178.21 627.863 1178.01 628.06 1178.21 628.453Z" fill="#006745"/>
<path d="M1192.39 631.013C1191.21 634.557 1190.22 638.101 1187.86 640.858C1185.5 643.811 1181.75 644.993 1178.41 644.008C1175.65 643.221 1173.29 641.252 1171.91 639.676C1169.94 637.707 1168.17 635.148 1166.79 632.982C1166.59 632.785 1166.2 632.588 1166 632.785C1165.81 632.982 1165.81 633.376 1166 633.573C1167.58 635.739 1169.15 638.298 1171.32 640.464C1172.89 642.039 1175.45 644.205 1178.6 645.189C1181.75 645.977 1184.71 645.386 1187.27 643.417C1187.86 643.024 1188.45 642.433 1189.04 641.842C1191.4 639.086 1192.58 635.345 1193.76 631.801C1193.76 631.604 1193.76 631.21 1193.37 631.013C1192.78 630.619 1192.39 630.619 1192.39 631.013Z" fill="#006745"/>
<path d="M1201.25 651.687C1199.28 655.625 1196.92 658.578 1194.55 661.532L1193.96 662.122C1191.21 665.666 1187.07 667.045 1183.13 666.257C1178.41 665.273 1174.27 660.941 1171.71 657.791C1171.52 657.594 1171.12 657.397 1170.93 657.594C1170.73 657.791 1170.73 658.184 1170.93 658.381C1173.68 661.532 1178.21 666.06 1183.13 667.242C1186.48 668.029 1190.02 667.242 1192.78 664.879C1193.57 664.288 1194.16 663.501 1194.95 662.713L1195.54 662.122C1197.9 659.169 1200.26 656.216 1202.43 652.081C1202.62 651.884 1202.43 651.49 1202.23 651.293C1201.64 651.49 1201.44 651.49 1201.25 651.687Z" fill="#006745"/>
<path d="M1179.19 673.936H1201.64C1202.43 673.936 1203.02 674.92 1202.82 675.905L1202.03 680.433C1201.84 681.221 1201.44 681.615 1200.85 681.615H1180.18C1179.59 681.615 1179 681.024 1179 680.433L1178.21 675.905C1177.82 674.92 1178.41 673.936 1179.19 673.936Z" fill="#8E0F1B"/>
<path d="M1198.69 697.76C1198.49 698.744 1197.9 699.729 1196.92 699.729H1183.72C1182.94 699.729 1182.15 698.941 1181.95 697.76L1180.18 682.009H1200.26L1198.69 697.76Z" fill="#BB2629"/>
<g opacity="0.65">
<path d="M1594.25 84.4368L1607.44 113.971H1634.41L1637.96 84.4368H1594.25Z" fill="#C1C7CF"/>
<path d="M1506.04 3.31665L1526.32 40.1357L1551.91 31.6693C1551.91 31.2755 1551.91 18.2806 1551.91 18.2806C1551.91 10.011 1545.22 8.04209 1536.75 8.04209L1506.04 3.31665Z" fill="#C1C7CF"/>
<path d="M1506.04 90.5405L1526.32 53.7214L1551.91 62.1879C1551.91 62.5816 1551.91 75.5766 1551.91 75.5766C1551.91 83.8461 1545.22 85.8151 1536.75 85.8151L1506.04 90.5405Z" fill="#C1C7CF"/>
<path d="M1500.33 48.6022C1500.33 48.6022 1709.82 48.2085 1710.22 48.6022C1685.41 -38.2278 1511.94 10.208 1500.33 48.6022Z" fill="#DFE1E6"/>
<path d="M1500.33 48.6023C1500.33 48.6023 1709.82 48.9961 1710.22 48.6023C1685.41 135.235 1511.94 86.9965 1500.33 48.6023Z" fill="#C1C7CF"/>
<path d="M1624.96 19.8557C1700.77 19.8557 1709.82 48.2084 1710.22 48.6022H1500.33C1500.92 48.2084 1548.96 19.8557 1624.96 19.8557Z" fill="#C1C7CF"/>
<path d="M1624.96 77.1517C1700.77 77.1517 1709.82 48.7991 1710.22 48.4053H1500.33C1500.92 48.7991 1548.96 77.1517 1624.96 77.1517Z" fill="#DFE1E6"/>
</g>
<g opacity="0.75">
<path opacity="0.75" d="M769.853 97.0381C781.076 97.0381 789.543 110.23 799.584 107.867C821.636 102.748 830.693 74.3953 854.714 74.3953C873.419 74.3953 884.249 97.6288 901.378 96.0536C928.55 93.494 940.954 56.8718 970.291 56.8718C997.462 56.8718 1010.65 88.3748 1035.86 91.1313C1050.62 92.7064 1061.45 74.986 1077.4 74.986C1107.72 74.986 1110.28 86.9965 1138.24 95.6598C1146.31 98.2195 1152.42 113.774 1161.47 113.774C1172.11 113.774 1181.56 117.121 1187.66 124.603H724.568C732.247 109.639 749.573 97.0381 769.853 97.0381Z" fill="#DFE1E6" fill-opacity="0.2"/>
</g>
</svg>
